<svg xmlns="http://www.w3.org/2000/svg" viewBox="0 0 163.09 159.45"><defs><style>.cls-1{fill:#e6e6e6;}.cls-2,.cls-3{fill:none;stroke:#000;stroke-miterlimit:10;}.cls-2{stroke-width:4px;}.cls-3{stroke-width:2px;}.cls-4{fill:gray;}.cls-5{fill:#999;}</style></defs><g id="Layer_2" data-name="Layer 2"><g id="Ground_shadow" data-name="Ground shadow"><polygon class="cls-1" points="136.84 105.15 46.7 159.15 73.7 151.73 163.09 100.11 137 85.05 136.84 105.15"/></g><g id="Layer_1-2" data-name="Layer 1"><polygon class="cls-2" points="2 53.92 2 131.34 46.7 157.15 136.09 105.53 136.09 28.11 91.39 2.31 2 53.92"/></g><g id="Layer_2-2" data-name="Layer 2"><polyline class="cls-3" points="2 53.92 46.7 79.73 136.09 28.11"/><line class="cls-3" x1="46.7" y1="157.15" x2="46.7" y2="79.73"/></g><g id="Layer_3" data-name="Layer 3"><polygon class="cls-4" points="54.33 91.95 54.33 81.63 58.8 79.05 58.8 89.37 54.33 91.95"/><polygon class="cls-4" points="54.33 106.95 54.33 96.63 58.8 94.05 58.8 104.37 54.33 106.95"/><polygon class="cls-4" points="54.33 121.95 54.33 111.63 58.8 109.05 58.8 119.37 54.33 121.95"/><polygon class="cls-4" points="54.33 136.95 54.33 126.63 58.8 124.05 58.8 134.37 54.33 136.95"/><polygon class="cls-4" points="61.33 87.95 61.33 77.63 65.8 75.05 65.8 85.37 61.33 87.95"/><polygon class="cls-4" points="61.33 102.95 61.33 92.63 65.8 90.05 65.8 100.37 61.33 102.95"/><polygon class="cls-4" points="61.33 117.95 61.33 107.63 65.8 105.05 65.8 115.37 61.33 117.95"/><polygon class="cls-4" points="61.33 132.95 61.33 122.63 65.8 120.05 65.8 130.37 61.33 132.95"/><polygon class="cls-4" points="68.33 83.95 68.33 73.63 72.8 71.05 72.8 81.37 68.33 83.95"/><polygon class="cls-4" points="68.33 98.95 68.33 88.63 72.8 86.05 72.8 96.37 68.33 98.95"/><polygon class="cls-4" points="68.33 113.95 68.33 103.63 72.8 101.05 72.8 111.37 68.33 113.95"/><polygon class="cls-4" points="68.33 128.95 68.33 118.63 72.8 116.05 72.8 126.37 68.33 128.95"/><polygon class="cls-4" points="75.33 79.95 75.33 69.63 79.8 67.05 79.8 77.37 75.33 79.95"/><polygon class="cls-4" points="75.33 94.95 75.33 84.63 79.8 82.05 79.8 92.37 75.33 94.95"/><polygon class="cls-4" points="75.33 109.95 75.33 99.63 79.8 97.05 79.8 107.37 75.33 109.95"/><polygon class="cls-4" points="75.33 124.95 75.33 114.63 79.8 112.05 79.8 122.37 75.33 124.95"/><polygon class="cls-4" points="82.33 75.95 82.33 65.63 86.8 63.05 86.8 73.37 82.33 75.95"/><polygon class="cls-4" points="82.33 90.95 82.33 80.63 86.8 78.05 86.8 88.37 82.33 90.95"/><polygon class="cls-4" points="82.33 105.95 82.33 95.63 86.8 93.05 86.8 103.37 82.33 105.95"/><polygon class="cls-4" points="82.33 120.95 82.33 110.63 86.8 108.05 86.8 118.37 82.33 120.95"/><polygon class="cls-4" points="89.33 71.95 89.33 61.63 93.8 59.05 93.8 69.37 89.33 71.95"/><polygon class="cls-4" points="89.33 86.95 89.33 76.63 93.8 74.05 93.8 84.37 89.33 86.95"/><polygon class="cls-4" points="89.33 101.95 89.33 91.63 93.8 89.05 93.8 99.37 89.33 101.95"/><polygon class="cls-4" points="89.33 116.95 89.33 106.63 93.8 104.05 93.8 114.37 89.33 116.95"/><polygon class="cls-4" points="96.33 67.95 96.33 57.63 100.8 55.05 100.8 65.37 96.33 67.95"/><polygon class="cls-4" points="96.33 82.95 96.33 72.63 100.8 70.05 100.8 80.37 96.33 82.95"/><polygon class="cls-4" points="96.33 97.95 96.33 87.63 100.8 85.05 100.8 95.37 96.33 97.95"/><polygon class="cls-4" points="96.33 112.95 96.33 102.63 100.8 100.05 100.8 110.37 96.33 112.95"/><polygon class="cls-4" points="103.33 63.95 103.33 53.63 107.8 51.05 107.8 61.37 103.33 63.95"/><polygon class="cls-4" points="103.33 78.95 103.33 68.63 107.8 66.05 107.8 76.37 103.33 78.95"/><polygon class="cls-4" points="103.33 93.95 103.33 83.63 107.8 81.05 107.8 91.37 103.33 93.95"/><polygon class="cls-4" points="103.33 108.95 103.33 98.63 107.8 96.05 107.8 106.37 103.33 108.95"/><polygon class="cls-4" points="110.33 59.95 110.33 49.63 114.8 47.05 114.8 57.37 110.33 59.95"/><polygon class="cls-4" points="110.33 74.95 110.33 64.63 114.8 62.05 114.8 72.37 110.33 74.95"/><polygon class="cls-4" points="110.33 89.95 110.33 79.63 114.8 77.05 114.8 87.37 110.33 89.95"/><polygon class="cls-4" points="110.33 104.95 110.33 94.63 114.8 92.05 114.8 102.37 110.33 104.95"/><polygon class="cls-4" points="117.33 55.95 117.33 45.63 121.8 43.05 121.8 53.37 117.33 55.95"/><polygon class="cls-4" points="117.33 70.95 117.33 60.63 121.8 58.05 121.8 68.37 117.33 70.95"/><polygon class="cls-4" points="117.33 85.95 117.33 75.63 121.8 73.05 121.8 83.37 117.33 85.95"/><polygon class="cls-4" points="117.33 100.95 117.33 90.63 121.8 88.05 121.8 98.37 117.33 100.95"/><polygon class="cls-4" points="124.33 51.95 124.33 41.63 128.8 39.05 128.8 49.37 124.33 51.95"/><polygon class="cls-4" points="124.33 66.95 124.33 56.63 128.8 54.05 128.8 64.37 124.33 66.95"/><polygon class="cls-4" points="124.33 81.95 124.33 71.63 128.8 69.05 128.8 79.37 124.33 81.95"/><polygon class="cls-4" points="124.33 96.95 124.33 86.63 128.8 84.05 128.8 94.37 124.33 96.95"/><polygon class="cls-5" points="35.94 78.95 35.94 89.28 40.41 91.86 40.41 81.53 35.94 78.95"/><polygon class="cls-5" points="28.94 74.95 28.94 85.28 33.41 87.86 33.41 77.53 28.94 74.95"/><polygon class="cls-5" points="21.94 70.95 21.94 81.28 26.41 83.86 26.41 73.53 21.94 70.95"/><polygon class="cls-5" points="14.94 66.95 14.94 77.28 19.41 79.86 19.41 69.53 14.94 66.95"/><polygon class="cls-5" points="7.94 62.95 7.94 73.28 12.41 75.86 12.41 65.53 7.94 62.95"/><polygon class="cls-5" points="35.94 93.95 35.94 104.28 40.41 106.86 40.41 96.53 35.94 93.95"/><polygon class="cls-5" points="28.94 89.95 28.94 100.28 33.41 102.86 33.41 92.53 28.94 89.95"/><polygon class="cls-5" points="21.94 85.95 21.94 96.28 26.41 98.86 26.41 88.53 21.94 85.95"/><polygon class="cls-5" points="14.94 81.95 14.94 92.28 19.41 94.86 19.41 84.53 14.94 81.95"/><polygon class="cls-5" points="7.94 77.95 7.94 88.28 12.41 90.86 12.41 80.53 7.94 77.95"/><polygon class="cls-5" points="35.94 108.95 35.94 119.28 40.41 121.86 40.41 111.53 35.94 108.95"/><polygon class="cls-5" points="28.94 104.95 28.94 115.28 33.41 117.86 33.41 107.53 28.94 104.95"/><polygon class="cls-5" points="21.94 100.95 21.94 111.28 26.41 113.86 26.41 103.53 21.94 100.95"/><polygon class="cls-5" points="14.94 96.95 14.94 107.28 19.41 109.86 19.41 99.53 14.94 96.95"/><polygon class="cls-5" points="7.94 92.95 7.94 103.28 12.41 105.86 12.41 95.53 7.94 92.95"/><polygon class="cls-5" points="35.94 123.95 35.94 134.28 40.41 136.85 40.41 126.53 35.94 123.95"/><polygon class="cls-5" points="28.94 119.95 28.94 130.28 33.41 132.85 33.41 122.53 28.94 119.95"/><polygon class="cls-5" points="21.94 115.95 21.94 126.28 26.41 128.85 26.41 118.53 21.94 115.95"/><polygon class="cls-5" points="14.94 111.95 14.94 122.28 19.41 124.86 19.41 114.53 14.94 111.95"/><polygon class="cls-5" points="7.94 107.95 7.94 118.28 12.41 120.86 12.41 110.53 7.94 107.95"/></g></g></svg>